<?xml version="1.0" encoding="UTF-8"?>
<!DOCTYPE svg PUBLIC "-//W3C//DTD SVG 1.1//EN" "http://www.w3.org/Graphics/SVG/1.1/DTD/svg11.dtd">
<svg xmlns="http://www.w3.org/2000/svg" version="1.1" width="512px" height="512px" style="shape-rendering:geometricPrecision; text-rendering:geometricPrecision; image-rendering:optimizeQuality; fill-rule:evenodd; clip-rule:evenodd" xmlns:xlink="http://www.w3.org/1999/xlink">
<g><path style="opacity:1" fill="#fefdfd" d="M -0.5,-0.5 C 33.1667,-0.5 66.8333,-0.5 100.5,-0.5C 43.8333,10.1667 10.1667,43.8333 -0.5,100.5C -0.5,66.8333 -0.5,33.1667 -0.5,-0.5 Z"/></g>
<g><path style="opacity:1" fill="#fefdfd" d="M 406.5,-0.5 C 441.5,-0.5 476.5,-0.5 511.5,-0.5C 511.5,33.1667 511.5,66.8333 511.5,100.5C 500.337,42.0027 465.337,8.336 406.5,-0.5 Z"/></g>
<g><path style="opacity:1" fill="#e02e24" d="M 100.5,-0.5 C 202.5,-0.5 304.5,-0.5 406.5,-0.5C 465.337,8.336 500.337,42.0027 511.5,100.5C 511.5,202.833 511.5,305.167 511.5,407.5C 501.701,467.632 466.701,502.299 406.5,511.5C 304.5,511.5 202.5,511.5 100.5,511.5C 42.4645,500.465 8.79784,465.798 -0.5,407.5C -0.5,305.167 -0.5,202.833 -0.5,100.5C 10.1667,43.8333 43.8333,10.1667 100.5,-0.5 Z"/></g>
<g><path style="opacity:1" fill="#fefdfd" d="M 141.5,74.5 C 142.833,97.3236 143.5,120.49 143.5,144C 143.333,167.167 143.167,190.333 143,213.5C 110.22,190.387 77.7205,166.887 45.5,143C 77.6807,120.304 109.681,97.4702 141.5,74.5 Z"/></g>
<g><path style="opacity:1" fill="#fefdfd" d="M 150.5,74.5 C 184.287,97.78 217.953,121.28 251.5,145C 217.913,167.71 184.413,190.543 151,213.5C 150.5,167.168 150.333,120.835 150.5,74.5 Z"/></g>
<g><path style="opacity:1" fill="#fefdfd" d="M 359.5,74.5 C 360.665,120.665 360.832,166.998 360,213.5C 326.587,190.543 293.087,167.71 259.5,145C 293.013,121.637 326.347,98.1369 359.5,74.5 Z"/></g>
<g><path style="opacity:1" fill="#fefdfd" d="M 367.5,74.5 C 400.545,96.6987 433.212,119.532 465.5,143C 433.28,166.887 400.78,190.387 368,213.5C 367.5,167.168 367.333,120.835 367.5,74.5 Z"/></g>
<g><path style="opacity:1" fill="#e13729" d="M 386.5,111.5 C 392.957,110.975 397.457,113.642 400,119.5C 400.424,122.328 399.09,123.661 396,123.5C 388.698,122.399 385.531,118.399 386.5,111.5 Z"/></g>
<g><path style="opacity:1" fill="#df2d21" d="M 406.5,115.5 C 408.167,115.5 409.833,115.5 411.5,115.5C 411.188,121.136 408.188,123.469 402.5,122.5C 402.961,119.697 404.295,117.363 406.5,115.5 Z"/></g>
<g><path style="opacity:1" fill="#e02e24" d="M 101.5,117.5 C 103.862,120.427 106.862,122.76 110.5,124.5C 113.638,123.195 115.971,121.029 117.5,118C 120.505,118.128 121.171,119.628 119.5,122.5C 120.896,123.852 121.563,125.519 121.5,127.5C 120.937,130.357 120.27,133.19 119.5,136C 122.529,143.372 126.029,150.539 130,157.5C 130.178,163.09 127.512,165.09 122,163.5C 118.389,166.966 114.556,167.299 110.5,164.5C 106.444,167.299 102.611,166.966 99,163.5C 93.5465,165.113 90.8799,163.113 91,157.5C 94.3333,151.5 97.6667,145.5 101,139.5C 101.472,135.402 100.972,131.402 99.5,127.5C 101.455,124.316 102.122,120.982 101.5,117.5 Z"/></g>
<g><path style="opacity:1" fill="#df2d23" d="M 314.5,117.5 C 324.522,117.168 334.522,117.501 344.5,118.5C 345.915,125.2 345.748,131.866 344,138.5C 340.667,143.167 336.667,147.167 332,150.5C 330.313,153.624 330.146,156.791 331.5,160C 334.726,160.885 337.726,162.219 340.5,164C 332.833,164.667 325.167,164.667 317.5,164C 320.215,162.092 323.215,160.759 326.5,160C 327.61,157.263 327.777,154.429 327,151.5C 323.333,148.167 319.667,144.833 316,141.5C 312.035,133.666 311.535,125.666 314.5,117.5 Z"/></g>
<g><path style="opacity:1" fill="#df2e23" d="M 173.5,119.5 C 175.5,119.5 177.5,119.5 179.5,119.5C 180.56,125.095 183.893,126.929 189.5,125C 191.607,123.736 192.607,121.903 192.5,119.5C 199.812,120.156 206.145,122.99 211.5,128C 210.47,131.229 208.804,134.062 206.5,136.5C 205.522,136.023 204.689,135.357 204,134.5C 203.667,144.167 203.333,153.833 203,163.5C 191.667,164.833 180.333,164.833 169,163.5C 168.667,153.833 168.333,144.167 168,134.5C 167.311,135.357 166.478,136.023 165.5,136.5C 163.196,134.062 161.53,131.229 160.5,128C 164.527,124.656 168.861,121.823 173.5,119.5 Z"/></g>
<g><path style="opacity:1" fill="#df2e23" d="M 395.5,124.5 C 413.347,123.518 422.181,131.851 422,149.5C 416.514,164.991 406.014,169.824 390.5,164C 380.249,156.243 377.749,146.41 383,134.5C 386.44,130.223 390.607,126.89 395.5,124.5 Z"/></g>
<g><path style="opacity:1" fill="#fefdfd" d="M 45.5,152.5 C 77.4519,175.12 109.119,198.12 140.5,221.5C 109.531,244.986 78.1972,267.986 46.5,290.5C 45.5012,244.67 45.1679,198.67 45.5,152.5 Z"/></g>
<g><path style="opacity:1" fill="#fefdfd" d="M 465.5,152.5 C 465.832,198.67 465.499,244.67 464.5,290.5C 432.803,267.986 401.469,244.986 370.5,221.5C 401.881,198.12 433.548,175.12 465.5,152.5 Z"/></g>
<g><path style="opacity:1" fill="#ee8f8a" d="M 45.5,152.5 C 45.1679,198.67 45.5012,244.67 46.5,290.5C 46.44,291.043 46.1067,291.376 45.5,291.5C 45.1667,268.167 44.8333,244.833 44.5,221.5C 44.495,197.762 44.8284,174.762 45.5,152.5 Z"/></g>
<g><path style="opacity:1" fill="#ec807a" d="M 464.5,290.5 C 465.499,244.67 465.832,198.67 465.5,152.5C 466.172,174.762 466.505,197.762 466.5,221.5C 466.167,244.833 465.833,268.167 465.5,291.5C 464.893,291.376 464.56,291.043 464.5,290.5 Z"/></g>
<g><path style="opacity:1" fill="#fefcfc" d="M 227.5,172.5 C 230.5,178.52 233,184.854 235,191.5C 237.719,192.444 240.552,192.777 243.5,192.5C 243.5,194.833 243.5,197.167 243.5,199.5C 247.707,199.259 251.707,198.259 255.5,196.5C 252.316,188.498 249.483,180.498 247,172.5C 254.908,175.871 262.741,179.371 270.5,183C 268.236,188.457 266.403,193.957 265,199.5C 269.121,198.571 273.121,197.237 277,195.5C 280.139,187.913 282.972,180.247 285.5,172.5C 286.552,172.351 287.552,172.517 288.5,173C 293.683,176.76 298.683,180.76 303.5,185C 298.167,189 292.833,193 287.5,197C 292.864,197.171 298.198,197.671 303.5,198.5C 305.414,202.323 306.747,206.323 307.5,210.5C 303.833,210.5 300.167,210.5 296.5,210.5C 295.821,215.059 294.821,219.559 293.5,224C 293.905,224.945 294.572,225.612 295.5,226C 299.21,226.895 302.877,227.895 306.5,229C 308.26,232.775 309.927,236.608 311.5,240.5C 305.967,241.544 300.467,242.544 295,243.5C 293.853,252.197 292.52,260.864 291,269.5C 288.079,271.377 285.246,273.377 282.5,275.5C 280.068,264.242 278.068,252.909 276.5,241.5C 273.102,241.18 269.768,241.513 266.5,242.5C 263.934,250.928 261.601,259.428 259.5,268C 256.456,270.612 253.289,273.112 250,275.5C 249.832,264.818 249.332,254.151 248.5,243.5C 246.224,242.787 243.891,242.287 241.5,242C 240.307,239.113 238.973,236.28 237.5,233.5C 236.139,235.028 234.972,236.695 234,238.5C 232.333,250.833 230.667,263.167 229,275.5C 222.5,271 216,266.5 209.5,262C 213.263,260.136 217.263,258.969 221.5,258.5C 221.46,252.385 220.626,246.385 219,240.5C 216.708,241.79 214.708,243.457 213,245.5C 210.139,238.749 207.972,231.749 206.5,224.5C 211.111,224.341 215.611,223.675 220,222.5C 220.096,218.801 219.596,215.134 218.5,211.5C 214.089,207.546 210.756,202.713 208.5,197C 211.629,194.893 214.962,193.059 218.5,191.5C 221.787,185.261 224.787,178.928 227.5,172.5 Z"/></g>
<g><path style="opacity:1" fill="#e02f24" d="M 78.5,197.5 C 85.7735,196.477 90.4402,199.477 92.5,206.5C 99.1342,208.752 102.634,213.418 103,220.5C 103.667,225.833 103.667,231.167 103,236.5C 101.363,238.81 99.196,240.31 96.5,241C 86.5,241.667 76.5,241.667 66.5,241C 61.4851,238.815 59.1517,234.981 59.5,229.5C 59.17,221.654 61.5033,214.821 66.5,209C 68.0249,207.991 69.6916,207.491 71.5,207.5C 71.9214,202.757 74.2547,199.424 78.5,197.5 Z"/></g>
<g><path style="opacity:1" fill="#fefaf9" d="M 79.5,201.5 C 83.6697,200.993 86.6697,202.659 88.5,206.5C 84.2172,207.492 79.8839,207.826 75.5,207.5C 75.6574,204.682 76.9908,202.682 79.5,201.5 Z"/></g>
<g><path style="opacity:1" fill="#e03025" d="M 431.5,199.5 C 432.496,199.414 433.329,199.748 434,200.5C 434.179,203.553 434.679,206.553 435.5,209.5C 439.344,211.922 443.01,214.589 446.5,217.5C 450.022,213.57 454.356,211.57 459.5,211.5C 459.931,215.422 458.931,218.922 456.5,222C 459.194,224.653 460.027,227.82 459,231.5C 454.542,232.698 451.042,231.198 448.5,227C 447.167,226.333 445.833,226.333 444.5,227C 441.788,230.102 438.621,232.602 435,234.5C 434.502,237.482 434.335,240.482 434.5,243.5C 429.709,242.894 425.709,240.727 422.5,237C 412.629,235.767 405.629,230.767 401.5,222C 405.255,212.601 412.255,207.268 422.5,206C 425.402,203.583 428.402,201.416 431.5,199.5 Z"/></g>
<g><path style="opacity:1" fill="#e03326" d="M 238.5,203.5 C 240.201,205.731 241.534,208.231 242.5,211C 245.375,212.302 248.375,213.135 251.5,213.5C 251.844,217.228 252.51,220.895 253.5,224.5C 249.938,226.866 246.104,228.866 242,230.5C 242.203,228.063 243.037,225.729 244.5,223.5C 240.893,222.511 237.226,222.177 233.5,222.5C 233.277,215.592 234.944,209.259 238.5,203.5 Z"/></g>
<g><path style="opacity:1" fill="#e03327" d="M 274.5,211.5 C 276.167,211.5 277.833,211.5 279.5,211.5C 279.669,216.181 280.002,220.848 280.5,225.5C 276.124,225.909 271.79,226.575 267.5,227.5C 267.833,222.833 268.167,218.167 268.5,213.5C 270.786,213.405 272.786,212.738 274.5,211.5 Z"/></g>
<g><path style="opacity:1" fill="#fefdfd" d="M 142.5,228.5 C 143.665,274.998 143.832,321.665 143,368.5C 110.196,345.188 77.6963,321.522 45.5,297.5C 78.076,274.724 110.409,251.724 142.5,228.5 Z"/></g>
<g><path style="opacity:1" fill="#eb7972" d="M 151.5,229.5 C 150.167,275.5 150.167,321.5 151.5,367.5C 151.44,368.043 151.107,368.376 150.5,368.5C 149.167,321.833 149.167,275.167 150.5,228.5C 151.107,228.624 151.44,228.957 151.5,229.5 Z"/></g>
<g><path style="opacity:1" fill="#fefdfd" d="M 151.5,229.5 C 183.121,252.455 214.454,275.789 245.5,299.5C 214.452,322.547 183.118,345.213 151.5,367.5C 150.167,321.5 150.167,275.5 151.5,229.5 Z"/></g>
<g><path style="opacity:1" fill="#fefdfd" d="M 359.5,229.5 C 360.833,275.5 360.833,321.5 359.5,367.5C 327.712,344.885 296.045,322.052 264.5,299C 296.325,276.002 327.992,252.835 359.5,229.5 Z"/></g>
<g><path style="opacity:1" fill="#fefcfc" d="M 367.5,228.5 C 400.313,251.411 432.98,274.578 465.5,298C 433.088,321.622 400.588,345.122 368,368.5C 367.5,321.835 367.333,275.168 367.5,228.5 Z"/></g>
<g><path style="opacity:1" fill="#e86862" d="M 359.5,229.5 C 359.56,228.957 359.893,228.624 360.5,228.5C 361.833,275.167 361.833,321.833 360.5,368.5C 359.893,368.376 359.56,368.043 359.5,367.5C 360.833,321.5 360.833,275.5 359.5,229.5 Z"/></g>
<g><path style="opacity:1" fill="#de291e" d="M 400.5,267.5 C 401.496,267.414 402.329,267.748 403,268.5C 403.667,271.167 403.667,273.833 403,276.5C 401.989,277.337 400.822,277.67 399.5,277.5C 399.253,274.061 399.586,270.728 400.5,267.5 Z"/></g>
<g><path style="opacity:1" fill="#de271c" d="M 385.5,269.5 C 388.488,269.155 389.821,270.488 389.5,273.5C 389.821,276.512 388.488,277.845 385.5,277.5C 385.5,274.833 385.5,272.167 385.5,269.5 Z"/></g>
<g><path style="opacity:1" fill="#df2d22" d="M 321.5,271.5 C 326.511,271.334 331.511,271.501 336.5,272C 338.073,274.758 338.407,277.592 337.5,280.5C 331.833,277.833 326.167,277.833 320.5,280.5C 319.674,277.438 320.007,274.438 321.5,271.5 Z"/></g>
<g><path style="opacity:1" fill="#de2419" d="M 413.5,269.5 C 416.488,269.155 417.821,270.488 417.5,273.5C 417.821,276.512 416.488,277.845 413.5,277.5C 413.5,274.833 413.5,272.167 413.5,269.5 Z"/></g>
<g><path style="opacity:1" fill="#df2d22" d="M 126.5,273.5 C 130.736,276.063 133.402,279.73 134.5,284.5C 133.104,289.856 131.604,295.19 130,300.5C 129.501,306.157 129.334,311.824 129.5,317.5C 128.5,317.5 127.5,317.5 126.5,317.5C 126.5,309.833 126.5,302.167 126.5,294.5C 124.856,294.286 123.356,294.62 122,295.5C 119.006,300.816 117.006,306.482 116,312.5C 115.167,314.667 113.667,316.167 111.5,317C 105.5,317.667 99.5,317.667 93.5,317C 90.4826,316.495 88.1492,314.995 86.5,312.5C 88.6071,309.939 91.2738,308.106 94.5,307C 98.9338,304.855 103.6,303.522 108.5,303C 112.32,297.193 115.487,291.027 118,284.5C 120.358,280.442 123.192,276.775 126.5,273.5 Z"/></g>
<g><path style="opacity:1" fill="#df2e23" d="M 176.5,275.5 C 182.842,275.334 189.175,275.5 195.5,276C 196.833,277.667 198.167,279.333 199.5,281C 202.5,281.333 205.5,281.667 208.5,282C 209,282.5 209.5,283 210,283.5C 210.667,293.833 210.667,304.167 210,314.5C 209.5,315 209,315.5 208.5,316C 193.5,316.667 178.5,316.667 163.5,316C 163,315.5 162.5,315 162,314.5C 161.333,304.167 161.333,293.833 162,283.5C 162.5,283 163,282.5 163.5,282C 169.658,283.053 173.991,280.887 176.5,275.5 Z"/></g>
<g><path style="opacity:1" fill="#e02f24" d="M 325.5,281.5 C 335.349,280.855 341.849,285.188 345,294.5C 345.19,308.306 338.357,314.473 324.5,313C 313.526,307.748 310.693,299.582 316,288.5C 318.529,285.115 321.696,282.782 325.5,281.5 Z"/></g>
<g><path style="opacity:1" fill="#df2e23" d="M 381.5,282.5 C 394.833,282.5 408.167,282.5 421.5,282.5C 421.5,285.5 421.5,288.5 421.5,291.5C 430.533,292.893 433.366,297.893 430,306.5C 428.106,309.844 425.273,311.178 421.5,310.5C 422.057,314.888 420.39,318.055 416.5,320C 405.735,320.952 395.068,320.619 384.5,319C 383.667,318.167 382.833,317.333 382,316.5C 381.5,305.172 381.333,293.838 381.5,282.5 Z"/></g>
<g><path style="opacity:1" fill="#fdefed" d="M 181.5,286.5 C 190.817,284.989 196.484,288.822 198.5,298C 197.167,307.333 191.834,311.333 182.5,310C 175.061,306.858 172.561,301.358 175,293.5C 176.694,290.642 178.861,288.309 181.5,286.5 Z"/></g>
<g><path style="opacity:1" fill="#df2d22" d="M 183.5,289.5 C 191.865,289.36 195.365,293.36 194,301.5C 191.459,306.069 187.625,307.569 182.5,306C 177.931,303.459 176.431,299.625 178,294.5C 179.406,292.256 181.239,290.59 183.5,289.5 Z"/></g>
<g><path style="opacity:1" fill="#fef4f3" d="M 421.5,295.5 C 427.883,297.536 428.883,301.036 424.5,306C 423.552,306.483 422.552,306.649 421.5,306.5C 421.5,302.833 421.5,299.167 421.5,295.5 Z"/></g>
<g><path style="opacity:1" fill="#fefdfd" d="M 250.5,306.5 C 251.499,352.33 251.832,398.33 251.5,444.5C 218.982,421.409 186.648,398.076 154.5,374.5C 186.217,351.452 218.217,328.785 250.5,306.5 Z"/></g>
<g><path style="opacity:1" fill="#f5bab6" d="M 250.5,306.5 C 250.56,305.957 250.893,305.624 251.5,305.5C 251.833,328.833 252.167,352.167 252.5,375.5C 252.505,399.238 252.172,422.238 251.5,444.5C 251.832,398.33 251.499,352.33 250.5,306.5 Z"/></g>
<g><path style="opacity:1" fill="#f4bab6" d="M 260.5,306.5 C 259.501,352.33 259.168,398.33 259.5,444.5C 258.828,422.238 258.495,399.238 258.5,375.5C 258.833,352.167 259.167,328.833 259.5,305.5C 260.107,305.624 260.44,305.957 260.5,306.5 Z"/></g>
<g><path style="opacity:1" fill="#fefdfd" d="M 260.5,306.5 C 292.783,328.785 324.783,351.452 356.5,374.5C 324.352,398.076 292.018,421.409 259.5,444.5C 259.168,398.33 259.501,352.33 260.5,306.5 Z"/></g>
<g><path style="opacity:1" fill="#df2e22" d="M 319.5,314.5 C 325.673,317.137 331.839,317.137 338,314.5C 338.584,317.257 338.25,319.923 337,322.5C 331.918,323.637 326.751,323.804 321.5,323C 320.675,320.222 320.008,317.389 319.5,314.5 Z"/></g>
<g><path style="opacity:1" fill="#e86254" d="M 218.5,344.5 C 222.894,348.252 222.227,349.252 216.5,347.5C 217.193,346.482 217.859,345.482 218.5,344.5 Z"/></g>
<g><path style="opacity:1" fill="#e03328" d="M 290.5,345.5 C 293.114,345.277 294.781,346.444 295.5,349C 299.881,350.725 303.715,353.225 307,356.5C 307.667,357.167 307.667,357.833 307,358.5C 297.244,359.651 287.411,359.818 277.5,359C 276.549,358.282 276.383,357.449 277,356.5C 280.39,353.29 284.223,350.623 288.5,348.5C 289.425,347.643 290.092,346.643 290.5,345.5 Z"/></g>
<g><path style="opacity:1" fill="#df2d23" d="M 211.5,349.5 C 228.871,347.342 240.205,354.509 245.5,371C 245.333,371.833 245.167,372.667 245,373.5C 240.685,370.839 236.352,370.839 232,373.5C 229.02,371.753 225.853,371.253 222.5,372C 221.684,379.421 221.184,386.921 221,394.5C 217.235,399.667 212.401,400.833 206.5,398C 203.208,395.588 202.041,392.421 203,388.5C 204.667,387.167 206.333,387.167 208,388.5C 208.723,392.918 211.057,394.251 215,392.5C 215.5,385.508 215.666,378.508 215.5,371.5C 211.802,371.194 208.302,371.861 205,373.5C 200.356,370.556 196.023,370.889 192,374.5C 193.214,362.084 199.714,353.75 211.5,349.5 Z"/></g>
<g><path style="opacity:1" fill="#e13529" d="M 276.5,362.5 C 287.167,362.5 297.833,362.5 308.5,362.5C 308.666,372.172 308.5,381.839 308,391.5C 307.5,393.333 306.333,394.5 304.5,395C 296.167,395.667 287.833,395.667 279.5,395C 277.667,394.5 276.5,393.333 276,391.5C 275.194,381.756 275.361,372.089 276.5,362.5 Z"/></g>
<g><path style="opacity:1" fill="#fefdfd" d="M -0.5,407.5 C 8.79784,465.798 42.4645,500.465 100.5,511.5C 66.8333,511.5 33.1667,511.5 -0.5,511.5C -0.5,476.833 -0.5,442.167 -0.5,407.5 Z"/></g>
<g><path style="opacity:1" fill="#fefdfd" d="M 511.5,407.5 C 511.5,442.167 511.5,476.833 511.5,511.5C 476.5,511.5 441.5,511.5 406.5,511.5C 466.701,502.299 501.701,467.632 511.5,407.5 Z"/></g>
</svg>
